#!OML:ASF F:\VICON\USERDATA\INSTALL\Justin_Nancy\Justin_Nancy.ASF
:FULLY-SPECIFIED
:DEGREES
95
root -8.00602 17.333 -16.4363 0.930144 -0.590266 4.37213
lowerback 5.02348 -1.42986 -5.78453
upperback 0.615126 -2.18547 1.64826
thorax -1.90045 -1.04664 5.09985
lowerneck -15.1948 -2.97178 -9.97762
upperneck 22.9275 -2.79327 4.80599
head 10.0252 -1.6164 3.00176
rclavicle -1.08338e-014 -4.77083e-015
rhumerus -31.8113 -17.3946 -76.6121
rradius 28.0354
rwrist 9.75072
rhand -14.6879 15.7186
rfingers 7.12502
rthumb 11.4657 -13.9478
lclavicle -1.08338e-014 -4.77083e-015
lhumerus -24.0717 2.24177 83.8726
lradius 37.514
lwrist -6.65208
lhand -19.1976 23.0198
lfingers 7.12502
lthumb 7.11439 52.8802
rfemur -29.2259 1.76937 13.7321
rtibia 22.7339
rfoot -6.06233 -15.3526
rtoes 1.14569
lfemur -0.160742 1.21714 -31.4505
ltibia 21.7985
lfoot -17.2871 -1.45833
ltoes 5.08171
96
root -8.01149 17.3362 -16.2848 0.940866 -0.289731 4.54062
lowerback 5.04676 -1.50766 -5.94487
upperback 0.551039 -2.30226 1.57721
thorax -1.96137 -1.10017 5.12526
lowerneck -15.1525 -2.95379 -9.89557
upperneck 23.1336 -2.79417 4.78774
head 10.0892 -1.61612 2.98489
rclavicle 2.50966e-014 -1.59028e-014
rhumerus -31.8336 -17.4846 -76.6203
rradius 27.7291
rwrist 10.0251
rhand -14.7614 15.472
rfingers 7.12502
rthumb 11.3949 -14.1984
lclavicle 2.50966e-014 -1.59028e-014
lhumerus -23.9969 1.90496 83.7779
lradius 37.6392
lwrist -6.42836
lhand -21.3954 14.0191
lfingers 7.12502
lthumb 4.99256 43.9402
rfemur -28.699 1.55387 13.5156
rtibia 20.3248
rfoot -6.63167 -14.9168
rtoes 0.704745
lfemur 0.653638 1.212 -31.5967
ltibia 21.2776
lfoot -17.276 -1.49103
ltoes 4.22944
97
root -8.01614 17.3333 -16.1392 1.02124 -0.189014 4.41216
lowerback 4.95138 -1.54128 -5.85841
upperback 0.586862 -2.33447 1.64663
thorax -1.86705 -1.12104 5.14609
lowerneck -15.2634 -2.88539 -9.88838
upperneck 23.2093 -2.67639 4.73965
head 10.1271 -1.56671 2.98309
rclavicle 2.27111e-014 -3.49861e-014
rhumerus -31.7772 -17.4811 -76.6311
rradius 27.6203
rwrist 10.1981
rhand -14.7899 15.2726
rfingers 7.12502
rthumb 11.3674 -14.3993
lclavicle 2.27111e-014 -3.49861e-014
lhumerus -23.6856 1.72593 83.7222
lradius 37.6645
lwrist -6.29244
lhand -21.774 10.6639
lfingers 7.12502
lthumb 4.62702 40.5934
rfemur -28.3141 1.55867 13.6447
rtibia 18.0384
rfoot -6.96464 -14.201
rtoes -0.610269
lfemur 1.35131 1.03425 -31.4522
ltibia 20.8116
lfoot -17.1295 -1.39264
ltoes 4.22645
98
root -8.02206 17.3249 -15.9943 1.13066 -0.179556 4.32791
lowerback 4.84145 -1.59135 -5.87199
upperback 0.587066 -2.39376 1.73557
thorax -1.79302 -1.15313 5.24563
lowerneck -15.2148 -2.82304 -9.87779
upperneck 23.1354 -2.5663 4.62692
head 10.081 -1.52709 2.95462
rclavicle 3.75703e-014 1.59028e-015
rhumerus -31.7957 -17.1334 -76.6934
rradius 27.5915
rwrist 10.0309
rhand -14.8065 15.5697
rfingers 7.12502
rthumb 11.3513 -14.103
lclavicle 3.75703e-014 1.59028e-015
lhumerus -23.5095 1.81537 83.6454
lradius 37.6817
lwrist -6.3322
lhand -21.8883 9.03275
lfingers 7.12502
lthumb 4.51663 38.9646
rfemur -27.9795 2.0596 13.5351
rtibia 15.952
rfoot -6.8574 -13.439
rtoes -2.2832
lfemur 1.97516 0.867089 -31.3573
ltibia 20.4186
lfoot -17.0809 -1.2791
ltoes 3.87856
99
root -8.03085 17.3197 -15.8534 1.21541 0.044701 4.293
lowerback 4.83331 -1.66737 -5.91926
upperback 0.509682 -2.49804 1.76863
thorax -1.85127 -1.20083 5.31405
lowerneck -14.9912 -2.7634 -9.77027
upperneck 23.0533 -2.50483 4.51471
head 10.0009 -1.50292 2.90415
rclavicle -3.77691e-015 9.54166e-015
rhumerus -32.0216 -17.0908 -76.6683
rradius 27.5442
rwrist 9.8065
rhand -14.6468 16.1255
rfingers 7.12502
rthumb 11.5054 -13.5387
lclavicle -3.77691e-015 9.54166e-015
lhumerus -23.3698 1.7199 83.5958
lradius 37.5921
lwrist -6.52941
lhand -21.9394 9.35745
lfingers 7.12502
lthumb 4.46729 39.2903
rfemur -27.5613 2.87683 13.1589
rtibia 14.1548
rfoot -6.67415 -12.7968
rtoes -5.11465
lfemur 2.59038 0.715306 -31.258
ltibia 20.1335
lfoot -17.195 -1.27722
ltoes 2.24065
